<svg width="63" height="27" viewBox="0 0 63 27" fill="none" xmlns="http://www.w3.org/2000/svg">
<path d="M0.564453 21H13.2485V17.444H5.10045V0.980011H0.564453V21Z" fill="black"/>
<path d="M21.587 18.228C19.291 18.228 18.003 16.548 18.003 13.748V13.524C18.003 10.724 19.347 9.10001 21.587 9.10001C23.855 9.10001 25.171 10.78 25.171 13.58V13.776C25.171 16.548 23.855 18.228 21.587 18.228ZM21.559 21.308C25.955 21.308 29.287 18.368 29.287 13.748V13.524C29.287 8.96001 25.983 6.02001 21.587 6.02001C17.191 6.02001 13.859 9.01601 13.859 13.608V13.832C13.859 18.396 17.191 21.308 21.559 21.308Z" fill="black"/>
<path d="M37.6649 26.404C42.4809 26.404 45.3649 24.192 45.3929 19.852V6.35601H41.3609V8.54001C40.5209 7.05601 39.0929 6.02001 36.7129 6.02001C33.0729 6.02001 30.2729 8.96001 30.2729 13.16V13.356C30.2729 17.696 33.1009 20.356 36.6569 20.356C38.8129 20.356 40.5489 19.068 41.3609 17.64V19.852C41.3609 22.148 40.1289 23.436 37.6649 23.436C35.5929 23.436 34.6689 22.596 34.4169 21.308H30.3849C30.7769 24.332 32.9329 26.404 37.6649 26.404ZM37.8609 17.304C35.8449 17.304 34.4169 15.792 34.4169 13.356V13.132C34.4169 10.724 35.6769 9.10001 37.9449 9.10001C40.1569 9.10001 41.4729 10.612 41.4729 13.104V13.3C41.4729 15.792 39.9889 17.304 37.8609 17.304Z" fill="black"/>
<path d="M54.9617 18.228C52.6657 18.228 51.3777 16.548 51.3777 13.748V13.524C51.3777 10.724 52.7217 9.10001 54.9617 9.10001C57.2297 9.10001 58.5457 10.78 58.5457 13.58V13.776C58.5457 16.548 57.2297 18.228 54.9617 18.228ZM54.9337 21.308C59.3297 21.308 62.6617 18.368 62.6617 13.748V13.524C62.6617 8.96001 59.3577 6.02001 54.9617 6.02001C50.5657 6.02001 47.2337 9.01601 47.2337 13.608V13.832C47.2337 18.396 50.5657 21.308 54.9337 21.308Z" fill="black"/>
</svg>
