<svg width="158" height="83" viewBox="0 0 158 83" fill="none" xmlns="http://www.w3.org/2000/svg">
<g filter="url(#filter0_d_1_30)">
<rect x="3" y="3" width="150" height="75" rx="6" fill="white"/>
<path d="M42.6399 48.3653C42.5398 48.1657 42.4547 47.9361 42.3847 47.6765C42.3146 47.417 42.2546 47.1424 42.2045 46.853C41.9743 47.1025 41.7091 47.3371 41.4088 47.5567C41.1085 47.7763 40.7732 47.971 40.4028 48.1407C40.0425 48.3004 39.6421 48.4252 39.2017 48.5151C38.7613 48.6149 38.2859 48.6648 37.7754 48.6648C36.9446 48.6648 36.1789 48.545 35.4782 48.3054C34.7876 48.0658 34.192 47.7314 33.6916 47.3022C33.1911 46.8729 32.8008 46.3638 32.5205 45.7748C32.2402 45.1759 32.1001 44.527 32.1001 43.8282C32.1001 42.1212 32.7357 40.8035 34.0069 39.8751C35.2881 38.9367 37.1948 38.4675 39.7272 38.4675H42.0544V37.5092C42.0544 36.7306 41.7991 36.1166 41.2887 35.6674C40.7782 35.2082 40.0425 34.9786 39.0816 34.9786C38.2308 34.9786 37.6102 35.1633 37.2199 35.5326C36.8295 35.892 36.6343 36.3762 36.6343 36.9851H32.4604C32.4604 36.2963 32.6106 35.6424 32.9109 35.0235C33.2211 34.4046 33.6666 33.8605 34.2471 33.3914C34.8376 32.9222 35.5533 32.5528 36.3941 32.2833C37.2449 32.0038 38.2158 31.864 39.3068 31.864C40.2877 31.864 41.1986 31.9838 42.0394 32.2234C42.8902 32.463 43.6258 32.8174 44.2464 33.2865C44.867 33.7557 45.3524 34.3497 45.7028 35.0684C46.0531 35.7772 46.2283 36.6008 46.2283 37.5391V44.4871C46.2283 45.3556 46.2833 46.0743 46.3934 46.6433C46.5035 47.2123 46.6637 47.7015 46.8739 48.1108V48.3653H42.6399ZM38.6612 45.4454C39.0816 45.4454 39.472 45.3955 39.8323 45.2957C40.1926 45.1958 40.5179 45.0661 40.8082 44.9063C41.0985 44.7466 41.3487 44.5669 41.5589 44.3673C41.7691 44.1576 41.9343 43.948 42.0544 43.7384V40.9532H39.9224C39.2718 40.9532 38.7163 41.0181 38.2558 41.1479C37.7954 41.2677 37.4201 41.4424 37.1298 41.672C36.8395 41.8916 36.6243 42.1611 36.4842 42.4806C36.3441 42.79 36.274 43.1294 36.274 43.4988C36.274 44.0578 36.4692 44.522 36.8595 44.8914C37.2599 45.2607 37.8605 45.4454 38.6612 45.4454Z" fill="#222326"/>
<path d="M60.748 41C60.748 52.8703 51.0984 62.5 39.1865 62.5C27.2746 62.5 17.625 52.8703 17.625 41C17.625 29.1297 27.2746 19.5 39.1865 19.5C51.0984 19.5 60.748 29.1297 60.748 41Z" stroke="#222326" stroke-width="3"/>
<path d="M74.3452 33.6104H75.7227C76.2262 33.6104 76.6811 33.5384 77.0874 33.3945C77.4936 33.2507 77.8407 33.0496 78.1284 32.7915C78.4119 32.5376 78.6299 32.235 78.7822 31.8838C78.9388 31.5326 79.0171 31.1496 79.0171 30.7349C79.0171 30.2905 78.9388 29.8864 78.7822 29.5225C78.6299 29.1585 78.4119 28.8454 78.1284 28.583C77.8407 28.3249 77.4936 28.1239 77.0874 27.98C76.6811 27.8319 76.2262 27.7578 75.7227 27.7578H72.5615V37H74.3452V33.6104ZM74.3452 32.1631V29.2051H75.7227C75.9766 29.2051 76.1966 29.2453 76.3828 29.3257C76.569 29.4061 76.7256 29.5161 76.8525 29.6558C76.9753 29.7954 77.0662 29.9583 77.1255 30.1445C77.189 30.3307 77.2207 30.5317 77.2207 30.7476C77.2207 30.9338 77.189 31.1136 77.1255 31.2871C77.0662 31.4564 76.9753 31.6066 76.8525 31.7378C76.7256 31.869 76.569 31.9727 76.3828 32.0488C76.1966 32.125 75.9766 32.1631 75.7227 32.1631H74.3452ZM83.6509 37.127C84.3153 37.127 84.8908 36.9979 85.3774 36.7397C85.8641 36.4816 86.2196 36.1938 86.4438 35.8765L85.5615 34.9243C85.3584 35.1867 85.0939 35.3835 84.7681 35.5146C84.4422 35.6458 84.1058 35.7114 83.7588 35.7114C83.5133 35.7114 83.2869 35.6733 83.0796 35.5972C82.8722 35.521 82.6881 35.4131 82.5273 35.2734C82.3708 35.138 82.2459 34.9878 82.1528 34.8228C82.0597 34.6535 81.9836 34.4313 81.9243 34.1562V34.1372H86.5835V33.3882C86.5835 32.8846 86.5137 32.4255 86.374 32.0107C86.2344 31.5918 86.0312 31.2342 85.7646 30.938C85.4938 30.6418 85.1637 30.4132 84.7744 30.2524C84.3893 30.0874 83.9492 30.0049 83.4541 30.0049C82.9759 30.0049 82.5337 30.0916 82.1274 30.2651C81.7212 30.4386 81.37 30.682 81.0737 30.9951C80.7775 31.3083 80.5469 31.6828 80.3818 32.1187C80.2168 32.5503 80.1343 33.0285 80.1343 33.5532V33.8071C80.1343 34.2684 80.2168 34.7021 80.3818 35.1084C80.5511 35.5104 80.7902 35.8595 81.0991 36.1558C81.408 36.4562 81.7783 36.6932 82.21 36.8667C82.6416 37.0402 83.1219 37.127 83.6509 37.127ZM83.4414 31.4331C83.6657 31.4331 83.8625 31.4691 84.0317 31.541C84.2052 31.6087 84.3512 31.7018 84.4697 31.8203C84.5882 31.943 84.6813 32.0869 84.749 32.252C84.8167 32.417 84.8506 32.5926 84.8506 32.7788V32.9185H81.9561C81.9984 32.6942 82.0618 32.491 82.1465 32.3091C82.2311 32.1271 82.3369 31.9705 82.4639 31.8394C82.5866 31.7082 82.7305 31.6087 82.8955 31.541C83.0605 31.4691 83.2425 31.4331 83.4414 31.4331ZM93.0581 30.0049C92.5968 30.0049 92.1715 30.117 91.7822 30.3413C91.3929 30.5614 91.0586 30.866 90.7793 31.2554L90.7666 31.103L90.6968 30.1318H89.0527V37H90.8174V32.874C90.8978 32.6794 90.9993 32.5101 91.1221 32.3662C91.2448 32.2223 91.3929 32.1038 91.5664 32.0107C91.7103 31.9303 91.8732 31.8711 92.0552 31.833C92.2414 31.7907 92.4487 31.7695 92.6772 31.7695C92.8973 31.7695 93.1279 31.7843 93.3691 31.814C93.6146 31.8394 93.8537 31.8796 94.0864 31.9346L94.3467 30.1763C94.207 30.134 94.0229 30.0959 93.7944 30.062C93.5701 30.0239 93.3247 30.0049 93.0581 30.0049ZM97.0317 30.1318H95.5146V37H97.1206V31.8584C97.1418 31.8034 97.165 31.7526 97.1904 31.7061C97.2158 31.6595 97.2454 31.6193 97.2793 31.5854C97.3258 31.5389 97.3787 31.5029 97.438 31.4775C97.4972 31.4521 97.5649 31.4395 97.6411 31.4395C97.7088 31.4395 97.7723 31.45 97.8315 31.4712C97.8908 31.4881 97.9437 31.5199 97.9902 31.5664C98.0325 31.613 98.0664 31.6785 98.0918 31.7632C98.1172 31.8478 98.1299 31.9557 98.1299 32.0869V37H99.6851V31.9346C99.6851 31.8838 99.6851 31.8436 99.6851 31.814C99.6851 31.7843 99.6851 31.7653 99.6851 31.7568C99.7062 31.7103 99.7316 31.6701 99.7612 31.6362C99.7908 31.5981 99.8247 31.5643 99.8628 31.5347C99.9093 31.505 99.958 31.4818 100.009 31.4648C100.064 31.4479 100.125 31.4395 100.193 31.4395C100.256 31.4395 100.318 31.45 100.377 31.4712C100.44 31.4881 100.495 31.5199 100.542 31.5664C100.589 31.6172 100.625 31.6849 100.65 31.7695C100.68 31.8542 100.694 31.9621 100.694 32.0933V37H102.3V32.0996C102.3 31.7188 102.262 31.3971 102.186 31.1348C102.114 30.8682 102.013 30.6502 101.881 30.481C101.746 30.3159 101.587 30.1953 101.405 30.1191C101.228 30.043 101.035 30.0049 100.828 30.0049C100.663 30.0049 100.51 30.026 100.371 30.0684C100.231 30.1107 100.106 30.1699 99.9961 30.2461C99.9072 30.3053 99.8247 30.3773 99.7485 30.4619C99.6766 30.5423 99.611 30.6333 99.5518 30.7349C99.5137 30.6291 99.4671 30.536 99.4121 30.4556C99.3613 30.3709 99.3 30.299 99.228 30.2397C99.1349 30.1593 99.0249 30.1001 98.8979 30.062C98.771 30.0239 98.6271 30.0049 98.4663 30.0049C98.1362 30.0049 97.8548 30.0916 97.6221 30.2651C97.3936 30.4344 97.2137 30.6672 97.0825 30.9634L97.0317 30.1318ZM108.032 37H109.822V36.8921C109.733 36.7186 109.666 36.5112 109.619 36.27C109.573 36.0288 109.549 35.7241 109.549 35.356V32.4106C109.549 32.0129 109.475 31.6637 109.327 31.3633C109.179 31.0586 108.974 30.8068 108.711 30.6079C108.449 30.409 108.138 30.2588 107.778 30.1572C107.423 30.0557 107.038 30.0049 106.623 30.0049C106.162 30.0049 105.751 30.0641 105.392 30.1826C105.036 30.2969 104.736 30.4535 104.49 30.6523C104.241 30.8512 104.05 31.0819 103.919 31.3442C103.792 31.6066 103.729 31.8838 103.729 32.1758H105.493C105.493 32.0531 105.51 31.9409 105.544 31.8394C105.582 31.7378 105.639 31.651 105.715 31.5791C105.8 31.4987 105.91 31.4373 106.045 31.395C106.181 31.3485 106.342 31.3252 106.528 31.3252C106.739 31.3252 106.923 31.3527 107.08 31.4077C107.241 31.4585 107.374 31.5326 107.48 31.6299C107.582 31.723 107.658 31.8351 107.708 31.9663C107.759 32.0933 107.785 32.2371 107.785 32.3979V32.8042H106.801C106.293 32.8042 105.842 32.8507 105.449 32.9438C105.059 33.0327 104.731 33.1639 104.465 33.3374C104.169 33.5278 103.946 33.7712 103.798 34.0674C103.65 34.3594 103.576 34.6958 103.576 35.0767C103.576 35.3729 103.635 35.6479 103.754 35.9019C103.872 36.1515 104.037 36.3674 104.249 36.5493C104.461 36.7313 104.712 36.873 105.004 36.9746C105.301 37.0762 105.624 37.127 105.976 37.127C106.191 37.127 106.392 37.1058 106.579 37.0635C106.765 37.0254 106.936 36.9704 107.093 36.8984C107.245 36.8307 107.385 36.7503 107.512 36.6572C107.639 36.5641 107.751 36.4647 107.848 36.3589C107.869 36.4816 107.895 36.598 107.924 36.708C107.954 36.818 107.99 36.9154 108.032 37ZM106.35 35.7622C106.185 35.7622 106.039 35.7432 105.912 35.7051C105.789 35.6628 105.686 35.6077 105.601 35.54C105.516 35.4681 105.451 35.3813 105.404 35.2798C105.362 35.174 105.341 35.0597 105.341 34.937C105.341 34.7804 105.37 34.6366 105.43 34.5054C105.489 34.37 105.58 34.2536 105.703 34.1562C105.825 34.0632 105.984 33.9912 106.179 33.9404C106.373 33.8854 106.608 33.8579 106.883 33.8579H107.785V35.0386C107.734 35.1274 107.664 35.2163 107.575 35.3052C107.486 35.3898 107.381 35.466 107.258 35.5337C107.135 35.6014 106.998 35.6564 106.845 35.6987C106.693 35.741 106.528 35.7622 106.35 35.7622ZM111.549 37H113.32V32.1187C113.379 32.0256 113.445 31.9409 113.517 31.8647C113.589 31.7886 113.669 31.723 113.758 31.668C113.868 31.5918 113.993 31.5347 114.132 31.4966C114.276 31.4585 114.433 31.4395 114.602 31.4395C114.805 31.4395 114.987 31.4606 115.148 31.5029C115.309 31.541 115.446 31.6108 115.561 31.7124C115.675 31.814 115.762 31.9536 115.821 32.1313C115.884 32.3049 115.916 32.527 115.916 32.7979V37H117.681V32.7725C117.681 32.2731 117.621 31.8499 117.503 31.5029C117.389 31.1517 117.228 30.8639 117.021 30.6396C116.809 30.4196 116.559 30.2588 116.271 30.1572C115.984 30.0557 115.666 30.0049 115.319 30.0049C115.048 30.0049 114.792 30.043 114.551 30.1191C114.31 30.1953 114.088 30.3053 113.885 30.4492C113.766 30.5339 113.654 30.6291 113.548 30.7349C113.443 30.8407 113.345 30.957 113.256 31.084L113.148 30.1318H111.549V37ZM122.689 37.127C123.353 37.127 123.929 36.9979 124.416 36.7397C124.902 36.4816 125.258 36.1938 125.482 35.8765L124.6 34.9243C124.396 35.1867 124.132 35.3835 123.806 35.5146C123.48 35.6458 123.144 35.7114 122.797 35.7114C122.551 35.7114 122.325 35.6733 122.118 35.5972C121.91 35.521 121.726 35.4131 121.565 35.2734C121.409 35.138 121.284 34.9878 121.191 34.8228C121.098 34.6535 121.022 34.4313 120.962 34.1562V34.1372H125.622V33.3882C125.622 32.8846 125.552 32.4255 125.412 32.0107C125.272 31.5918 125.069 31.2342 124.803 30.938C124.532 30.6418 124.202 30.4132 123.812 30.2524C123.427 30.0874 122.987 30.0049 122.492 30.0049C122.014 30.0049 121.572 30.0916 121.166 30.2651C120.759 30.4386 120.408 30.682 120.112 30.9951C119.816 31.3083 119.585 31.6828 119.42 32.1187C119.255 32.5503 119.172 33.0285 119.172 33.5532V33.8071C119.172 34.2684 119.255 34.7021 119.42 35.1084C119.589 35.5104 119.828 35.8595 120.137 36.1558C120.446 36.4562 120.816 36.6932 121.248 36.8667C121.68 37.0402 122.16 37.127 122.689 37.127ZM122.479 31.4331C122.704 31.4331 122.901 31.4691 123.07 31.541C123.243 31.6087 123.389 31.7018 123.508 31.8203C123.626 31.943 123.719 32.0869 123.787 32.252C123.855 32.417 123.889 32.5926 123.889 32.7788V32.9185H120.994C121.036 32.6942 121.1 32.491 121.185 32.3091C121.269 32.1271 121.375 31.9705 121.502 31.8394C121.625 31.7082 121.769 31.6087 121.934 31.541C122.099 31.4691 122.281 31.4331 122.479 31.4331ZM127.164 37H128.935V32.1187C128.994 32.0256 129.06 31.9409 129.132 31.8647C129.204 31.7886 129.284 31.723 129.373 31.668C129.483 31.5918 129.608 31.5347 129.748 31.4966C129.891 31.4585 130.048 31.4395 130.217 31.4395C130.42 31.4395 130.602 31.4606 130.763 31.5029C130.924 31.541 131.062 31.6108 131.176 31.7124C131.29 31.814 131.377 31.9536 131.436 32.1313C131.5 32.3049 131.531 32.527 131.531 32.7979V37H133.296V32.7725C133.296 32.2731 133.237 31.8499 133.118 31.5029C133.004 31.1517 132.843 30.8639 132.636 30.6396C132.424 30.4196 132.174 30.2588 131.887 30.1572C131.599 30.0557 131.282 30.0049 130.935 30.0049C130.664 30.0049 130.408 30.043 130.167 30.1191C129.925 30.1953 129.703 30.3053 129.5 30.4492C129.382 30.5339 129.269 30.6291 129.164 30.7349C129.058 30.8407 128.96 30.957 128.872 31.084L128.764 30.1318H127.164V37ZM138.209 28.4497H136.444V30.1318H134.876V31.4331H136.444V34.5562C136.444 35.009 136.504 35.3983 136.622 35.7241C136.741 36.0457 136.91 36.3102 137.13 36.5176C137.346 36.7292 137.606 36.8857 137.911 36.9873C138.22 37.0846 138.562 37.1333 138.939 37.1333C139.134 37.1333 139.33 37.1227 139.529 37.1016C139.732 37.0846 139.927 37.0592 140.113 37.0254C140.299 36.9915 140.475 36.9492 140.64 36.8984C140.805 36.8434 140.949 36.7799 141.072 36.708L140.9 35.4956C140.82 35.5168 140.723 35.5379 140.608 35.5591C140.498 35.5802 140.38 35.5993 140.253 35.6162C140.122 35.6374 139.984 35.6543 139.84 35.667C139.701 35.6797 139.563 35.686 139.428 35.686C139.242 35.686 139.072 35.6649 138.92 35.6226C138.772 35.5802 138.645 35.5083 138.539 35.4067C138.433 35.3094 138.351 35.1782 138.292 35.0132C138.236 34.8439 138.209 34.6344 138.209 34.3848V31.4331H140.773V30.1318H138.209V28.4497ZM72.2041 48.8522V48.9722C72.2041 49.4254 72.2689 49.8443 72.3984 50.229C72.5279 50.6099 72.7183 50.9412 72.9697 51.223C73.2172 51.5049 73.5219 51.7258 73.8837 51.8857C74.2494 52.0419 74.6645 52.12 75.1291 52.12C75.59 52.12 76.0013 52.0419 76.3631 51.8857C76.7249 51.7258 77.0296 51.5049 77.2772 51.223C77.5248 50.9412 77.7133 50.6099 77.8428 50.229C77.9723 49.8443 78.037 49.4254 78.037 48.9722V48.8522C78.037 48.4028 77.9723 47.9876 77.8428 47.6068C77.7133 47.2221 77.5248 46.8889 77.2772 46.607C77.0258 46.3252 76.7192 46.1043 76.3574 45.9443C75.9956 45.7844 75.5824 45.7044 75.1177 45.7044C74.6531 45.7044 74.2398 45.7844 73.878 45.9443C73.52 46.1043 73.2172 46.3252 72.9697 46.607C72.7183 46.8889 72.5279 47.2221 72.3984 47.6068C72.2689 47.9876 72.2041 48.4028 72.2041 48.8522ZM73.7923 48.9722V48.8522C73.7923 48.6008 73.8171 48.3628 73.8666 48.1381C73.9161 47.9134 73.9942 47.7153 74.1008 47.5439C74.2075 47.3726 74.3446 47.2374 74.5122 47.1383C74.6797 47.0393 74.8816 46.9898 75.1177 46.9898C75.3577 46.9898 75.5614 47.0393 75.729 47.1383C75.8966 47.2374 76.0337 47.3726 76.1403 47.5439C76.2432 47.7153 76.3193 47.9134 76.3688 48.1381C76.4184 48.3628 76.4431 48.6008 76.4431 48.8522V48.9722C76.4431 49.2312 76.4184 49.4749 76.3688 49.7034C76.3193 49.9281 76.2432 50.1243 76.1403 50.2918C76.0337 50.4632 75.8966 50.5984 75.729 50.6975C75.5614 50.7965 75.3615 50.846 75.1291 50.846C74.8892 50.846 74.6835 50.7965 74.5122 50.6975C74.3446 50.5984 74.2075 50.4632 74.1008 50.2918C73.9942 50.1243 73.9161 49.9281 73.8666 49.7034C73.8171 49.4749 73.7923 49.2312 73.7923 48.9722ZM79.4481 52H81.042V47.6068C81.0953 47.523 81.1543 47.4468 81.2191 47.3783C81.2838 47.3097 81.3562 47.2507 81.4362 47.2012C81.5352 47.1326 81.6476 47.0812 81.7732 47.0469C81.9027 47.0126 82.0436 46.9955 82.196 46.9955C82.3788 46.9955 82.5426 47.0146 82.6873 47.0526C82.832 47.0869 82.9558 47.1498 83.0586 47.2412C83.1615 47.3326 83.2395 47.4583 83.2929 47.6182C83.35 47.7744 83.3786 47.9743 83.3786 48.2181V52H84.9667V48.1952C84.9667 47.7458 84.9134 47.3649 84.8068 47.0526C84.704 46.7365 84.5592 46.4775 84.3726 46.2757C84.1822 46.0776 83.9575 45.9329 83.6985 45.8415C83.4395 45.7501 83.1539 45.7044 82.8415 45.7044C82.5978 45.7044 82.3674 45.7387 82.1503 45.8072C81.9332 45.8758 81.7332 45.9748 81.5504 46.1043C81.4438 46.1805 81.3429 46.2662 81.2477 46.3614C81.1524 46.4566 81.0648 46.5613 80.9849 46.6756L80.8877 45.8187H79.4481V52ZM97.5351 50.2633L98.0207 52H99.7117L97.0381 43.682H95.5813L92.8562 52H94.5473L95.0386 50.2633H97.5351ZM95.4328 48.8979L96.3068 45.8358L97.1581 48.8979H95.4328ZM104.968 45.7044C104.552 45.7044 104.17 45.8053 103.819 46.0072C103.469 46.2052 103.168 46.4794 102.917 46.8298L102.905 46.6927L102.842 45.8187H101.363V52H102.951V48.2866C103.023 48.1114 103.115 47.9591 103.225 47.8296C103.336 47.7001 103.469 47.5935 103.625 47.5097C103.755 47.4373 103.901 47.384 104.065 47.3497C104.233 47.3116 104.419 47.2926 104.625 47.2926C104.823 47.2926 105.03 47.3059 105.248 47.3326C105.468 47.3554 105.684 47.3916 105.893 47.4411L106.127 45.8586C106.002 45.8206 105.836 45.7863 105.63 45.7558C105.428 45.7215 105.208 45.7044 104.968 45.7044ZM108.013 52H109.406L110.063 48.6979L110.189 48.0695L110.321 48.6979L111 52H112.394L113.503 45.8187H112.046L111.589 49.4635L111.509 50.0633L111.4 49.4749L110.732 45.8187H109.669L109.001 49.492L108.892 50.0805L108.818 49.492L108.355 45.8187H106.904L108.013 52ZM117.582 52.1143C118.18 52.1143 118.698 51.9981 119.136 51.7658C119.574 51.5334 119.893 51.2745 120.095 50.9888L119.301 50.1319C119.118 50.368 118.88 50.5451 118.587 50.6632C118.294 50.7813 117.991 50.8403 117.679 50.8403C117.458 50.8403 117.254 50.806 117.067 50.7375C116.881 50.6689 116.715 50.5718 116.57 50.4461C116.43 50.3242 116.317 50.189 116.233 50.0405C116.15 49.8881 116.081 49.6882 116.028 49.4406V49.4235H120.221V48.7494C120.221 48.2961 120.158 47.8829 120.032 47.5097C119.907 47.1326 119.724 46.8108 119.484 46.5442C119.24 46.2776 118.943 46.0719 118.593 45.9272C118.246 45.7787 117.85 45.7044 117.405 45.7044C116.974 45.7044 116.576 45.7825 116.211 45.9386C115.845 46.0948 115.529 46.3138 115.262 46.5956C114.996 46.8774 114.788 47.2145 114.639 47.6068C114.491 47.9953 114.417 48.4256 114.417 48.8979V49.1264C114.417 49.5416 114.491 49.9319 114.639 50.2976C114.792 50.6594 115.007 50.9736 115.285 51.2402C115.563 51.5106 115.896 51.7239 116.285 51.88C116.673 52.0362 117.106 52.1143 117.582 52.1143ZM117.393 46.9898C117.595 46.9898 117.772 47.0222 117.924 47.0869C118.081 47.1479 118.212 47.2316 118.319 47.3383C118.425 47.4487 118.509 47.5782 118.57 47.7268C118.631 47.8753 118.661 48.0333 118.661 48.2009V48.3266H116.056C116.094 48.1248 116.152 47.9419 116.228 47.7782C116.304 47.6144 116.399 47.4735 116.513 47.3554C116.624 47.2374 116.753 47.1479 116.902 47.0869C117.05 47.0222 117.214 46.9898 117.393 46.9898ZM125.471 52H127.082V51.9029C127.002 51.7467 126.941 51.5601 126.899 51.343C126.857 51.1259 126.837 50.8517 126.837 50.5204V47.8696C126.837 47.5116 126.77 47.1974 126.637 46.927C126.503 46.6527 126.319 46.4261 126.082 46.2471C125.846 46.0681 125.566 45.9329 125.243 45.8415C124.923 45.7501 124.576 45.7044 124.203 45.7044C123.788 45.7044 123.418 45.7577 123.095 45.8644C122.775 45.9672 122.504 46.1081 122.283 46.2871C122.059 46.4661 121.887 46.6737 121.769 46.9098C121.655 47.1459 121.598 47.3954 121.598 47.6582H123.186C123.186 47.5478 123.201 47.4468 123.232 47.3554C123.266 47.264 123.317 47.1859 123.386 47.1212C123.462 47.0488 123.561 46.9936 123.683 46.9555C123.805 46.9136 123.95 46.8927 124.117 46.8927C124.308 46.8927 124.473 46.9174 124.614 46.9669C124.759 47.0126 124.879 47.0793 124.974 47.1669C125.066 47.2507 125.134 47.3516 125.18 47.4697C125.225 47.5839 125.248 47.7134 125.248 47.8582V48.2238H124.363C123.906 48.2238 123.5 48.2657 123.146 48.3495C122.796 48.4294 122.5 48.5475 122.26 48.7037C121.994 48.875 121.794 49.094 121.661 49.3606C121.527 49.6234 121.461 49.9262 121.461 50.269C121.461 50.5356 121.514 50.7832 121.621 51.0117C121.727 51.2364 121.876 51.4306 122.066 51.5944C122.257 51.7582 122.483 51.8857 122.746 51.9771C123.013 52.0686 123.304 52.1143 123.62 52.1143C123.814 52.1143 123.995 52.0952 124.163 52.0571C124.33 52.0229 124.485 51.9733 124.626 51.9086C124.763 51.8477 124.888 51.7753 125.003 51.6915C125.117 51.6077 125.218 51.5182 125.305 51.423C125.325 51.5334 125.347 51.6382 125.374 51.7372C125.401 51.8362 125.433 51.9238 125.471 52ZM123.957 50.886C123.809 50.886 123.677 50.8688 123.563 50.8346C123.453 50.7965 123.359 50.747 123.283 50.686C123.207 50.6213 123.148 50.5432 123.106 50.4518C123.068 50.3566 123.049 50.2538 123.049 50.1433C123.049 50.0024 123.076 49.8729 123.129 49.7548C123.182 49.633 123.264 49.5282 123.375 49.4406C123.485 49.3568 123.628 49.2921 123.803 49.2464C123.978 49.1969 124.19 49.1721 124.437 49.1721H125.248V50.2347C125.203 50.3147 125.14 50.3947 125.06 50.4747C124.98 50.5508 124.885 50.6194 124.774 50.6803C124.664 50.7413 124.54 50.7908 124.403 50.8289C124.266 50.8669 124.117 50.886 123.957 50.886ZM130.601 52H132.092L134.44 45.8187H132.784L131.43 50.1776L131.344 50.6118L131.258 50.1776L129.899 45.8187H128.242L130.601 52ZM138.662 52.1143C139.26 52.1143 139.778 51.9981 140.216 51.7658C140.654 51.5334 140.974 51.2745 141.176 50.9888L140.382 50.1319C140.199 50.368 139.961 50.5451 139.668 50.6632C139.374 50.7813 139.072 50.8403 138.759 50.8403C138.538 50.8403 138.335 50.806 138.148 50.7375C137.961 50.6689 137.796 50.5718 137.651 50.4461C137.51 50.3242 137.398 50.189 137.314 50.0405C137.23 49.8881 137.162 49.6882 137.108 49.4406V49.4235H141.302V48.7494C141.302 48.2961 141.239 47.8829 141.113 47.5097C140.987 47.1326 140.805 46.8108 140.565 46.5442C140.321 46.2776 140.024 46.0719 139.673 45.9272C139.327 45.7787 138.931 45.7044 138.485 45.7044C138.055 45.7044 137.657 45.7825 137.291 45.9386C136.925 46.0948 136.609 46.3138 136.343 46.5956C136.076 46.8774 135.869 47.2145 135.72 47.6068C135.572 47.9953 135.497 48.4256 135.497 48.8979V49.1264C135.497 49.5416 135.572 49.9319 135.72 50.2976C135.872 50.6594 136.088 50.9736 136.366 51.2402C136.644 51.5106 136.977 51.7239 137.365 51.88C137.754 52.0362 138.186 52.1143 138.662 52.1143ZM138.474 46.9898C138.676 46.9898 138.853 47.0222 139.005 47.0869C139.161 47.1479 139.293 47.2316 139.399 47.3383C139.506 47.4487 139.59 47.5782 139.651 47.7268C139.711 47.8753 139.742 48.0333 139.742 48.2009V48.3266H137.137C137.175 48.1248 137.232 47.9419 137.308 47.7782C137.384 47.6144 137.48 47.4735 137.594 47.3554C137.704 47.2374 137.834 47.1479 137.982 47.0869C138.131 47.0222 138.295 46.9898 138.474 46.9898Z" fill="#222326"/>
<rect x="3.5" y="3.5" width="149" height="74" rx="5.5" stroke="black"/>
</g>
<defs>
<filter id="filter0_d_1_30" x="0" y="0" width="158" height="83" filterUnits="userSpaceOnUse" color-interpolation-filters="sRGB">
<feFlood flood-opacity="0" result="BackgroundImageFix"/>
<feColorMatrix in="SourceAlpha" type="matrix" values="0 0 0 0 0 0 0 0 0 0 0 0 0 0 0 0 0 0 127 0" result="hardAlpha"/>
<feOffset dx="1" dy="1"/>
<feGaussianBlur stdDeviation="2"/>
<feComposite in2="hardAlpha" operator="out"/>
<feColorMatrix type="matrix" values="0 0 0 0 0 0 0 0 0 0 0 0 0 0 0 0 0 0 0.25 0"/>
<feBlend mode="normal" in2="BackgroundImageFix" result="effect1_dropShadow_1_30"/>
<feBlend mode="normal" in="SourceGraphic" in2="effect1_dropShadow_1_30" result="shape"/>
</filter>
</defs>
</svg>
