<svg width="1000" height="1000" viewBox="0 0 1000 1000" fill="none" xmlns="http://www.w3.org/2000/svg">
<rect width="1000" height="1000" fill="#DBDBDB"/>
<path fill-rule="evenodd" clip-rule="evenodd" d="M600 440C600 428.954 591.046 420 580 420H420C408.954 420 400 428.954 400 440V560C400 571.046 408.954 580 420 580H580C591.046 580 600 571.046 600 560V440ZM475 450C483.284 450 490 456.716 490 465C490 473.284 483.284 480 475 480C466.716 480 460 473.284 460 465C460 456.716 466.716 450 475 450ZM565 550C567.761 550 570 547.762 570 545V541.6C569.993 540.519 569.643 539.469 569 538.6L526.5 481.9C525.533 480.677 524.059 479.964 522.5 479.964C520.941 479.964 519.467 480.677 518.5 481.9L489.7 519.1C488.746 520.347 487.27 521.085 485.7 521.1C484.227 521.102 482.832 520.441 481.9 519.3L467.4 501.8C466.437 500.644 465.005 499.983 463.5 500C462.127 500.144 460.868 500.827 460 501.9L431.1 538.6C430.387 539.437 429.996 540.501 430 541.6V545C430 547.762 432.239 550 435 550H565Z" fill="black" fill-opacity="0.15"/>
</svg>
