<svg width="1280" height="720" viewBox="0 0 1280 720" fill="none" xmlns="http://www.w3.org/2000/svg">
<rect width="1280" height="720" fill="#DBDBDB"/>
<path fill-rule="evenodd" clip-rule="evenodd" d="M740 300C740 288.954 731.046 280 720 280H560C548.954 280 540 288.954 540 300V420C540 431.046 548.954 440 560 440H720C731.046 440 740 431.046 740 420V300ZM615 310C623.284 310 630 316.716 630 325C630 333.284 623.284 340 615 340C606.716 340 600 333.284 600 325C600 316.716 606.716 310 615 310ZM705 410C707.761 410 710 407.762 710 405V401.6C709.993 400.519 709.643 399.469 709 398.6L666.5 341.9C665.533 340.677 664.059 339.964 662.5 339.964C660.941 339.964 659.467 340.677 658.5 341.9L629.7 379.1C628.746 380.347 627.27 381.085 625.7 381.1C624.227 381.102 622.832 380.441 621.9 379.3L607.4 361.8C606.437 360.644 605.005 359.983 603.5 360C602.127 360.144 600.868 360.827 600 361.9L571.1 398.6C570.387 399.437 569.996 400.501 570 401.6V405C570 407.762 572.239 410 575 410H705Z" fill="black" fill-opacity="0.15"/>
</svg>
