<svg width="14" height="13" viewBox="0 0 14 13" fill="none" xmlns="http://www.w3.org/2000/svg">
<path d="M6.27798 8.71566C5.86731 8.71566 5.52198 8.59899 5.24198 8.36566C4.96198 8.13232 4.82198 7.77299 4.82198 7.28766C4.82198 6.96099 4.90132 6.69032 5.05998 6.47566C5.21865 6.26099 5.45198 6.09766 5.75998 5.98566C6.07732 5.86432 6.46465 5.79899 6.92198 5.78966L7.66398 5.77566V5.66366C7.66398 5.40232 7.60332 5.21566 7.48198 5.10366C7.36998 4.99166 7.21131 4.93566 7.00598 4.93566C6.82865 4.93566 6.62332 4.96832 6.38998 5.03366C6.16598 5.08966 5.93265 5.17366 5.68998 5.28566L5.31198 4.38966C5.58265 4.25899 5.87198 4.15632 6.17998 4.08166C6.49732 4.00699 6.83798 3.96966 7.20198 3.96966C7.78065 3.96966 8.22398 4.10966 8.53198 4.38966C8.84931 4.66032 9.00798 5.06166 9.00798 5.59366V8.64566H8.04198L7.78998 7.86166L7.84598 7.90366C7.63131 8.18366 7.41198 8.38899 7.18798 8.51966C6.96398 8.65032 6.66065 8.71566 6.27798 8.71566ZM6.75398 7.76366C6.93132 7.76366 7.08532 7.73099 7.21598 7.66566C7.35598 7.60032 7.46798 7.50232 7.55198 7.37166C7.63598 7.23166 7.67798 7.07299 7.67798 6.89566V6.54566L7.21598 6.55966C6.83332 6.57832 6.56265 6.64366 6.40398 6.75566C6.25465 6.85832 6.17998 7.01232 6.17998 7.21766C6.17998 7.40432 6.23132 7.54432 6.33398 7.63766C6.44598 7.72166 6.58598 7.76366 6.75398 7.76366ZM7.00598 12.4117C6.16598 12.4117 5.37732 12.253 4.63998 11.9357C3.91198 11.6277 3.26798 11.1983 2.70798 10.6477C2.15731 10.0877 1.72331 9.44366 1.40598 8.71566C1.09798 7.97832 0.943981 7.18966 0.943981 6.34966C0.943981 5.50966 1.09798 4.72566 1.40598 3.99766C1.72331 3.26032 2.15731 2.61632 2.70798 2.06566C3.26798 1.50566 3.91198 1.07166 4.63998 0.763656C5.37732 0.446323 6.16598 0.287656 7.00598 0.287656C7.84598 0.287656 8.62998 0.446323 9.35798 0.763656C10.0953 1.07166 10.7393 1.50566 11.29 2.06566C11.85 2.61632 12.284 3.26032 12.592 3.99766C12.9093 4.72566 13.068 5.50966 13.068 6.34966C13.068 7.18966 12.9093 7.97832 12.592 8.71566C12.284 9.44366 11.85 10.0877 11.29 10.6477C10.7393 11.1983 10.0953 11.6277 9.35798 11.9357C8.62998 12.253 7.84598 12.4117 7.00598 12.4117ZM7.00598 11.1657C7.67798 11.1657 8.30332 11.0443 8.88198 10.8017C9.46065 10.5497 9.96932 10.2043 10.408 9.76566C10.856 9.31766 11.2013 8.80432 11.444 8.22566C11.696 7.63766 11.822 7.01232 11.822 6.34966C11.822 5.67766 11.696 5.05232 11.444 4.47366C11.2013 3.89499 10.856 3.38632 10.408 2.94766C9.96932 2.49966 9.45598 2.15432 8.86798 1.91166C8.28932 1.65966 7.66865 1.53366 7.00598 1.53366C6.33398 1.53366 5.70865 1.65966 5.12998 1.91166C4.55132 2.15432 4.03798 2.49966 3.58998 2.94766C3.15131 3.38632 2.80598 3.89966 2.55398 4.48766C2.31131 5.06632 2.18998 5.68699 2.18998 6.34966C2.18998 7.02166 2.31131 7.64699 2.55398 8.22566C2.80598 8.80432 3.15131 9.31766 3.58998 9.76566C4.03798 10.2043 4.55132 10.5497 5.12998 10.8017C5.71798 11.0443 6.34331 11.1657 7.00598 11.1657Z" fill="#999999"/>
</svg>
