<?xml version="1.0" encoding="UTF-8"?>
<svg width="1200pt" height="1200pt" version="1.1" viewBox="0 0 1200 1200" xmlns="http://www.w3.org/2000/svg">
 <g>
  <rect width="1200" height="1200" fill="#fff"/>
  <path d="m600 259.93c-187.55 0-340.07 152.52-340.07 340.07 0 187.55 152.52 340.07 340.07 340.07 187.55 0 340.07-152.52 340.07-340.07 0-187.55-152.52-340.07-340.07-340.07zm0 45.344c163.04 0 294.73 131.68 294.73 294.73 0 73.191-26.605 140.04-70.613 191.53-46.699-78.395-129.59-131.07-224.12-131.07-94.527 0-177.41 52.676-224.11 131.07-44.008-51.484-70.613-118.34-70.613-191.53 0-163.04 131.69-294.73 294.73-294.73zm0 37.785c-82.844 0-151.14 65.875-151.14 147.36 0 81.492 68.297 147.37 151.14 147.37 82.848 0 151.14-65.875 151.14-147.37 0-81.488-68.297-147.36-151.14-147.36zm0 45.344c59.062 0 105.8 45.777 105.8 102.02s-46.738 102.02-105.8 102.02c-59.059 0-105.8-45.781-105.8-102.02s46.738-102.02 105.8-102.02zm0 317.4c81.68 0 153.02 47.441 190.82 118.79-51.398 43.68-117.93 70.141-190.82 70.141-72.887 0-139.42-26.461-190.82-70.141 37.797-71.348 109.14-118.79 190.82-118.79z"/>
 </g>
</svg>
