<svg width="26" height="25" viewBox="0 0 26 25" fill="none" xmlns="http://www.w3.org/2000/svg">
<path fill-rule="evenodd" clip-rule="evenodd" d="M2.60553 12.207C4.80802 6.70196 11.1988 3.96996 16.8795 6.10396C19.7704 7.19015 22.0563 9.40488 23.1773 12.206C23.224 12.3224 23.224 12.4515 23.1773 12.568C20.9748 18.072 14.5841 20.804 8.90339 18.67C6.0124 17.5838 3.72657 15.369 2.60553 12.568C2.55886 12.4515 2.55886 12.3224 2.60553 12.206V12.207ZM9.27598 17.737C14.3632 19.648 20.0779 17.255 22.1411 12.387C21.0987 9.93077 19.0616 7.99674 16.5058 7.03696C11.4207 5.12596 5.70595 7.51896 3.64278 12.387C4.68517 14.8432 6.72232 16.7772 9.27804 17.737H9.27598ZM12.8914 16.387C10.6114 16.387 8.76303 14.5961 8.76303 12.387C8.76303 10.1778 10.6114 8.38696 12.8914 8.38696C15.1715 8.38696 17.0198 10.1778 17.0198 12.387C17.0198 14.5961 15.1715 16.387 12.8914 16.387ZM12.8914 15.387C14.6015 15.387 15.9877 14.0438 15.9877 12.387C15.9877 10.7301 14.6015 9.38696 12.8914 9.38696C11.1814 9.38696 9.79513 10.7301 9.79513 12.387C9.79513 14.0438 11.1814 15.387 12.8914 15.387Z" fill="#7D7D7D"/>
</svg>
