<?xml version="1.0" encoding="UTF-8"?>
<svg width="1200pt" height="1200pt" version="1.1" viewBox="0 0 1200 1200" xmlns="http://www.w3.org/2000/svg">
 <path d="m600 1034.6 350.28-350.28c111-111 153.6-238.44 116.64-349.44-29.641-89.16-106.08-153.12-199.44-166.68-97.441-14.16-193.2 27.961-267.6 116.64-74.281-88.559-170.04-130.8-267.6-116.64-93.48 13.559-169.92 77.52-199.44 166.68-36.84 111.12 5.6406 238.44 116.64 349.44zm-410.16-681c22.441-67.559 80.398-115.92 151.2-126.24 9.3594-1.3203 18.602-2.0391 27.961-2.0391 75.84 0 149.76 44.641 206.4 125.76l24.602 35.156 24.48-35.16c63.602-91.078 149.04-136.08 234.36-123.72 70.922 10.32 128.88 58.68 151.2 126.24 29.52 88.801-7.8008 193.92-102.24 288.24l-307.8 308.04-308.04-307.92c-94.32-94.441-131.64-199.56-102.12-288.36z" fill="#4c25e0"/>
</svg>
