<?xml version="1.0" encoding="UTF-8"?>
<svg width="1200pt" height="1200pt" version="1.1" viewBox="0 0 1200 1200" xmlns="http://www.w3.org/2000/svg">
 <defs>
  <clipPath id="a">
   <path d="m222.14 222.14h755.71v755.71h-755.71z"/>
  </clipPath>
 </defs>
 <path d="m60 0h1080c33.137 0 60 33.137 60 60v1080c0 33.137-26.863 60-60 60h-1080c-33.137 0-60-33.137-60-60v-1080c0-33.137 26.863-60 60-60z" fill="#9b9b9b"/>
 <g clip-path="url(#a)">
  <path d="m453.88 746.12c21.105 21.105 55.223 21.105 76.328 0l339.69-339.7v193.57c0 29.797 24.129 53.98 53.98 53.98 29.852 0 53.98-24.184 53.98-53.98v-323.88c0-29.797-24.129-53.98-53.98-53.98h-323.88c-29.848 0-53.977 24.184-53.977 53.98s24.129 53.98 53.977 53.98h193.57l-339.7 339.69c-21.105 21.105-21.105 55.223 0 76.328m470.54 15.816c-29.527 0-53.492 24.129-53.492 53.98v32.332c0 20.996-24.02 21.645-26.773 21.645h-488.3c-2.7539 0-26.719-0.64844-26.719-21.645v-491.16c0-14.844 11.93-26.988 26.719-26.988h28.773c29.523 0 53.438-24.129 53.438-53.98s-23.914-53.98-53.438-53.98h-28.773c-73.734 0-133.71 60.512-133.71 134.95v491.16c0 72.656 58.73 129.61 133.71 129.61h488.3c74.977 0 133.71-56.949 133.71-129.61v-32.332c0-29.852-23.914-53.98-53.441-53.98" fill="#fff" fill-rule="evenodd"/>
 </g>
</svg>
