<?xml version="1.0" encoding="UTF-8"?>
<svg width="1200pt" height="1200pt" version="1.1" viewBox="0 0 1200 1200" xmlns="http://www.w3.org/2000/svg">
 <path d="m879.15 502.3v-167.5c0-153.9-125.25-279.15-279.15-279.15-153.9-0.003906-279.15 125.2-279.15 279.15v167.5c-76.949 0-139.6 62.602-139.6 139.6v362.9c0 76.949 62.602 139.6 139.6 139.6h558.35c76.949 0 139.6-62.602 139.6-139.6v-362.9c-0.054688-77.004-62.656-139.6-139.66-139.6zm-502.5-167.5c0-123.15 100.2-223.35 223.35-223.35 123.15 0 223.35 100.2 223.35 223.35v167.5h-446.7zm586.25 670c0 46.199-37.551 83.75-83.75 83.75h-558.3c-46.199 0-83.75-37.551-83.75-83.75v-362.9c0-46.199 37.551-83.75 83.75-83.75h558.35c46.199 0 83.75 37.551 83.75 83.75l-0.003906 362.9z" fill="#4c25e0"/>
</svg>
