<svg xmlns="http://www.w3.org/2000/svg" xmlns:xlink="http://www.w3.org/1999/xlink" version="1.1" x="0px" y="0px" viewBox="0 0 90 90" enable-background="new 0 0 90 90" xml:space="preserve"><path d="M53.4,16.6c3.9-1.1,8.1-1.5,12.1-1C84.8,18,85.8,36.9,85.8,36.9C88.6,54.9,73,63,73,63c0,0-0.1,0-0.1,0.1  c-1.8,1.3-2,3.8-0.6,5.5l0.5,0.5c1.1,1.2,0.8,3.1-0.5,4c-0.5,0.3-1,0.6-1.4,0.7c-1.1,0.4-2.2,0-2.9-0.9c-0.9-1.2-2.2-3.3-3.1-5.8  c-0.1-0.3-0.1-0.5-0.2-0.8c-0.4-3.5,3.5-7.5,4.8-8.8c0.3-0.3,0.6-0.7,0.9-1.1c1.2-2,0.1-2.8-1.1-3.1c-0.9-0.2-1.8-0.2-2.6,0.1  c-2.3,0.8-4.3,2.1-5.2,2.7c-0.3,0.2-0.6,0.4-1,0.6c-4,2.5-3.3,9.6-3.3,9.6L59,73c0.4,1.5-0.5,3-2,3.3c-3.3,0.7-6.4,0.4-8.5,0  c-1.5-0.3-2.4-1.7-2.2-3.2c0.5-3.7,0.1-7.9,0.1-7.9c0.1-5.4-3.7-4.9-3.7-4.9c-8.1,1.3-11.2-0.3-11.2-0.3c-2.3-0.9-3.5,0.5-4.1,2  c-0.5,1.3-0.6,2.8-0.2,4.2l1.7,6c0.5,1.9-0.6,3.8-2.5,4.2c-6,1.2-9.7,0-11.6-1.1c-1-0.5-1.5-1.6-1.3-2.7c0.8-4.2,0.7-12.9,0.7-16.2  c0-0.8-0.4-1.6-1-2.1c-5.7-5-6.4-13-6.4-13L4.1,44c-0.5,0.5-1.3,0-1.2-0.6C9,14,41.8,20.2,46.5,20.2C47,20.2,49.3,17.8,53.4,16.6z   M76.6,39.1c0.5,0,0.9-0.4,0.9-0.9s-0.4-0.9-0.9-0.9c-0.5,0-0.9,0.4-0.9,0.9S76.1,39.1,76.6,39.1z"></path></svg>