<?xml version="1.0" encoding="UTF-8"?>
<svg width="1200pt" height="1200pt" version="1.1" viewBox="0 0 1200 1200" xmlns="http://www.w3.org/2000/svg">
 <g fill="#4c25e0">
  <path d="m894.38 875.62-7.5-7.5c-26.25-30-58.125-56.25-91.875-75l-7.5-3.75 1.875-7.5c16.875-56.25 26.25-118.12 26.25-181.88v-9.375h187.5v9.375c0 99.375-35.625 195-103.12 268.12zm-84.375-95.625c30 18.75 58.125 41.25 84.375 67.5 56.25-67.5 88.125-151.88 91.875-240h-150c-1.875 61.875-11.25 120-26.25 172.5z"/>
  <path d="m793.12 429.38-3.75-11.25c-37.5-123.75-110.62-202.5-189.38-202.5v-18.75c114.38 0 225 48.75 300 135l5.625 5.625-5.625 5.625c-28.125 31.875-61.875 58.125-97.5 78.75zm-105-204.38c48.75 33.75 90 93.75 116.25 174.38 28.125-16.875 54.375-39.375 76.875-63.75-52.5-54.375-120-91.875-193.12-110.62z"/>
  <path d="m834.38 609.38h-243.75v-150h9.375c67.5 0 135-18.75 193.12-52.5l9.375-5.625 3.75 11.25c16.875 58.125 26.25 121.88 26.25 187.5v9.375zm-225-18.75h206.25c0-56.25-9.375-112.5-22.5-161.25-56.25 30-118.12 46.875-183.75 48.75z"/>
  <path d="m804.38 798.75-9.375-5.625c-58.125-33.75-125.62-52.5-193.12-52.5h-9.375v-150h243.75v9.375c0 65.625-9.375 131.25-26.25 187.5zm-195-76.875c63.75 1.875 127.5 18.75 183.75 48.75 15-50.625 22.5-105 22.5-161.25h-206.25z"/>
  <path d="m609.38 1003.1h-9.375c-88.125 0-166.88-82.5-208.12-215.62l-1.875-7.5 5.625-3.75c61.875-35.625 131.25-54.375 202.5-54.375h9.375v281.25zm-196.88-213.75c37.5 116.25 103.12 189.38 178.12 195v-243.75c-61.875 1.875-123.75 18.75-178.12 48.75z"/>
  <path d="m609.38 478.12h-9.375c-71.25 0-142.5-18.75-202.5-54.375l-5.625-3.75 1.875-7.5c41.25-133.12 120-215.62 208.12-215.62h9.375v281.25zm-196.88-67.5c54.375 30 116.25 46.875 178.12 48.75v-243.75c-73.125 5.625-140.62 78.75-178.12 195z"/>
  <path d="m384.38 609.38h-187.5v-9.375c0-99.375 35.625-195 103.12-268.12l7.5-7.5 7.5 7.5c26.25 30 58.125 56.25 91.875 75l5.625 3.75-1.875 7.5c-16.875 56.25-26.25 118.12-26.25 181.88zm-168.75-18.75h150c0-60 9.375-118.12 24.375-170.62-30-18.75-58.125-41.25-84.375-67.5-56.25 65.625-88.125 150-90 238.12z"/>
  <path d="m305.62 875.62-5.625-7.5c-65.625-73.125-103.12-168.75-103.12-268.12v-9.375h187.5v9.375c0 63.75 9.375 127.5 26.25 181.88l1.875 7.5-5.625 3.75c-33.75 20.625-65.625 45-91.875 75zm-90-266.25c1.875 88.125 33.75 172.5 91.875 240 24.375-26.25 52.5-48.75 84.375-67.5-15-52.5-24.375-112.5-24.375-170.62h-151.88z"/>
  <path d="m600 487.5c-73.125 0-146.25-18.75-208.12-56.25-37.5-20.625-69.375-48.75-99.375-80.625-7.5-7.5-5.625-18.75 1.875-26.25s18.75-5.625 26.25 1.875c26.25 30 56.25 54.375 90 73.125 58.125 33.75 121.88 50.625 189.38 50.625s131.25-16.875 189.38-50.625c33.75-18.75 63.75-45 90-73.125 7.5-7.5 18.75-7.5 26.25-1.875 7.5 7.5 7.5 18.75 1.875 26.25-30 31.875-61.875 60-99.375 80.625-61.875 37.5-135 56.25-208.12 56.25z"/>
  <path d="m894.38 881.25c-5.625 0-9.375-1.875-13.125-5.625-26.25-30-56.25-54.375-90-73.125-60-35.625-123.75-52.5-191.25-52.5s-131.25 16.875-189.38 50.625c-33.75 18.75-63.75 45-90 73.125-7.5 7.5-18.75 7.5-26.25 1.875-7.5-7.5-7.5-18.75-1.875-26.25 30-31.875 61.875-60 99.375-80.625 61.875-37.5 135-56.25 208.12-56.25s146.25 18.75 208.12 56.25c37.5 20.625 69.375 48.75 99.375 80.625 7.5 7.5 5.625 18.75-1.875 26.25-3.75 3.75-7.5 5.625-11.25 5.625z"/>
  <path d="m600 1012.5c-118.12 0-228.75-50.625-307.5-136.88-67.5-76.875-105-174.38-105-275.62s37.5-198.75 105-275.62c78.75-86.25 189.38-136.88 307.5-136.88s228.75 50.625 307.5 136.88c67.5 76.875 105 174.38 105 275.62s-37.5 198.75-105 275.62c-78.75 86.25-189.38 136.88-307.5 136.88zm0-787.5c-106.88 0-208.12 45-279.38 125.62-61.875 67.5-95.625 157.5-95.625 249.38s33.75 181.88 95.625 249.38c71.25 80.625 172.5 125.62 279.38 125.62s208.12-45 279.38-125.62c61.875-67.5 95.625-157.5 95.625-249.38s-33.75-181.88-95.625-249.38c-71.25-80.625-172.5-125.62-279.38-125.62z"/>
  <path d="m600 1012.5c-91.875 0-174.38-84.375-215.62-221.25-18.75-58.125-28.125-123.75-28.125-191.25 0-65.625 9.375-133.12 28.125-191.25 41.25-136.88 123.75-221.25 215.62-221.25s174.38 84.375 215.62 221.25c18.75 58.125 28.125 123.75 28.125 191.25 0 65.625-9.375 133.12-28.125 191.25-41.25 136.88-123.75 221.25-215.62 221.25zm0-787.5c-75 0-144.38 75-180 195-16.875 54.375-26.25 118.12-26.25 180s9.375 125.62 26.25 180c35.625 120 105 195 180 195s144.38-75 180-195c16.875-54.375 26.25-116.25 26.25-180s-9.375-125.62-26.25-180c-35.625-120-105-195-180-195z"/>
  <path d="m600 1012.5c-11.25 0-18.75-7.5-18.75-18.75v-787.5c0-11.25 7.5-18.75 18.75-18.75s18.75 7.5 18.75 18.75v787.5c0 11.25-7.5 18.75-18.75 18.75z"/>
  <path d="m993.75 618.75h-787.5c-11.25 0-18.75-7.5-18.75-18.75s7.5-18.75 18.75-18.75h787.5c11.25 0 18.75 7.5 18.75 18.75s-7.5 18.75-18.75 18.75z"/>
 </g>
</svg>
