<?xml version="1.0" encoding="UTF-8"?>
<svg width="1200pt" height="1200pt" version="1.1" viewBox="0 0 1200 1200" xmlns="http://www.w3.org/2000/svg">
 <path d="m844.38 773.66 315.16 315.16c19.574 19.574 19.75 51.137 0.089844 70.801-19.527 19.523-51.215 19.496-70.801-0.089844l-315.16-315.16c-81.59 66.059-185.51 105.62-298.66 105.62-262.34 0-475-212.66-475-475s212.66-475 475-475 475 212.66 475 475c0 113.16-39.566 217.07-105.62 298.66zm-369.38 76.336c207.11 0 375-167.89 375-375s-167.89-375-375-375-375 167.89-375 375 167.89 375 375 375z" fill="#4c25e0" fill-rule="evenodd"/>
</svg>
