<svg width="26" height="25" viewBox="0 0 26 25" fill="none" xmlns="http://www.w3.org/2000/svg">
<path fill-rule="evenodd" clip-rule="evenodd" d="M7.73874 18.462C7.56432 17.4473 7.85945 16.4096 8.5457 15.6247C9.23196 14.8398 10.2398 14.3871 11.3015 14.387H13.8395C14.1245 14.387 14.3555 14.6108 14.3555 14.887V18.114C14.3555 18.2386 14.4303 18.3519 14.547 18.4043C14.6638 18.4567 14.8013 18.4386 14.8994 18.358L22.1613 12.378C22.4616 12.131 22.6346 11.7686 22.6346 11.387C22.6346 11.0053 22.4616 10.643 22.1613 10.396L14.8994 4.41596C14.8013 4.33532 14.6638 4.31723 14.547 4.36961C14.4303 4.42199 14.3555 4.5353 14.3555 4.65996V7.88696C14.3555 8.1631 14.1245 8.38696 13.8395 8.38696H10.7432C7.0381 8.38696 4.03454 11.2971 4.03454 14.887C4.03454 17.737 5.34118 19.484 8.04218 20.226L7.73874 18.462ZM11.3015 15.387C10.5431 15.387 9.82302 15.7103 9.33276 16.271C8.8425 16.8317 8.6317 17.5731 8.75639 18.298L9.18781 20.805C9.21537 20.9667 9.15934 21.1313 9.03786 21.2454C8.91638 21.3595 8.74488 21.4087 8.57887 21.377C4.89841 20.669 3.00244 18.465 3.00244 14.887C3.00244 10.7448 6.46809 7.38696 10.7432 7.38696H13.3234V4.65996C13.3233 4.14537 13.6318 3.67761 14.1139 3.46158C14.5959 3.24555 15.1636 3.32064 15.5682 3.65396L22.8291 9.63396C23.3597 10.071 23.6655 10.7117 23.6655 11.3865C23.6655 12.0612 23.3597 12.702 22.8291 13.139L15.5682 19.119C15.1639 19.452 14.5967 19.5273 14.1148 19.3118C13.6329 19.0962 13.3241 18.6292 13.3234 18.115V15.387H11.3015Z" fill="#7D7D7D"/>
</svg>
