<svg width="1728" height="299" viewBox="0 0 1728 299" fill="none" xmlns="http://www.w3.org/2000/svg">
<g opacity="0.6">
<g opacity="0.2">
<path d="M1727.39 8.16949C1629.94 35.505 1553.73 45.2048 1473.33 43.8518C1371.9 36.547 1249.38 -8.66847 1129.03 3.93651C917.876 29.7907 686.466 248.821 468.003 222.506C321.875 212.711 201.373 138.429 0.486206 195.901" stroke="url(#paint0_linear_0_1)" stroke-width="2"/>
</g>
<path d="M1728.37 36.6815C1546.29 31.392 1367.05 74.7296 1367.05 74.7296C1292.7 89.9456 1166.58 131.261 1075.98 162.925C777.31 275.209 467.873 245.866 344.036 249.867C218.009 255.247 121.184 264.485 47.1383 285.706L-0.774048 298.031" stroke="url(#paint1_linear_0_1)" stroke-width="2"/>
<path d="M1744.48 143.671C1639.3 179.688 1593.83 183.956 1593.83 183.956C1548.43 190.396 1530.66 198.468 1401.48 194.355C1217.84 181.212 1080.52 130.16 850.802 114.024C621.085 97.8871 506.722 221.248 387.853 255.351C221.733 314.473 67.2917 255.602 1.0035 247.184L-52.9714 298.031" stroke="url(#paint2_linear_0_1)" stroke-width="2" stroke-dasharray="7 4"/>
</g>
<circle cx="233.838" cy="257.255" r="17" fill="url(#paint3_linear_0_1)" stroke="#F7F7F7"/>
<circle cx="616.759" cy="247.283" r="17" fill="url(#paint4_linear_0_1)" stroke="#F7F7F7"/>
<circle cx="725.657" cy="118.075" r="17" fill="#F5FAFF" stroke="url(#paint5_linear_0_1)"/>
<circle cx="1204.95" cy="118.913" r="17" fill="url(#paint6_linear_0_1)" stroke="#F7F7F7"/>
<circle cx="1367.07" cy="191.327" r="17" fill="#A639EA" stroke="#F7F7F7"/>
<path d="M228.06 269.879L223.287 265.106L223.947 264.447L224.51 265.009L224.566 264.953C224.533 264.841 224.506 264.701 224.485 264.532C224.464 264.364 224.483 264.178 224.544 263.976C224.602 263.773 224.739 263.564 224.955 263.348C225.235 263.068 225.556 262.889 225.918 262.81C226.279 262.732 226.656 262.764 227.048 262.905C227.441 263.045 227.825 263.303 228.2 263.678C228.575 264.053 228.834 264.437 228.978 264.831C229.119 265.222 229.153 265.6 229.079 265.963C229.004 266.325 228.826 266.645 228.546 266.926C228.335 267.137 228.127 267.274 227.922 267.337C227.719 267.399 227.532 267.42 227.362 267.4C227.191 267.381 227.049 267.354 226.935 267.321L226.894 267.362L228.736 269.204L228.06 269.879ZM225.685 266.18C225.929 266.424 226.178 266.603 226.433 266.716C226.688 266.829 226.934 266.87 227.172 266.84C227.408 266.808 227.624 266.695 227.818 266.501C228.02 266.299 228.135 266.077 228.164 265.834C228.191 265.59 228.147 265.341 228.031 265.086C227.916 264.83 227.743 264.586 227.511 264.354C227.282 264.125 227.042 263.954 226.79 263.841C226.54 263.726 226.294 263.685 226.051 263.717C225.81 263.747 225.588 263.863 225.384 264.067C225.188 264.263 225.073 264.479 225.039 264.715C225.005 264.95 225.045 265.193 225.156 265.443C225.268 265.693 225.444 265.939 225.685 266.18ZM232.218 263.258C231.893 263.583 231.534 263.793 231.143 263.886C230.751 263.979 230.354 263.959 229.952 263.825C229.549 263.691 229.169 263.445 228.81 263.086C228.45 262.726 228.202 262.344 228.067 261.94C227.931 261.536 227.91 261.139 228.004 260.747C228.097 260.355 228.306 259.997 228.632 259.671C228.957 259.346 229.316 259.136 229.708 259.043C230.099 258.95 230.497 258.971 230.901 259.106C231.305 259.242 231.686 259.49 232.047 259.85C232.405 260.208 232.651 260.589 232.786 260.991C232.92 261.393 232.94 261.79 232.847 262.182C232.753 262.574 232.544 262.932 232.218 263.258ZM231.653 262.688C231.864 262.477 231.983 262.247 232.01 261.997C232.038 261.747 231.992 261.496 231.873 261.244C231.755 260.991 231.585 260.753 231.362 260.53C231.14 260.309 230.903 260.139 230.65 260.022C230.397 259.901 230.144 259.854 229.893 259.879C229.641 259.905 229.41 260.023 229.199 260.234C228.987 260.446 228.867 260.679 228.84 260.932C228.814 261.184 228.861 261.437 228.98 261.692C229.099 261.943 229.269 262.18 229.491 262.401C229.714 262.624 229.951 262.795 230.202 262.914C230.456 263.032 230.707 263.077 230.957 263.05C231.209 263.021 231.441 262.901 231.653 262.688ZM236.087 259.389C235.745 259.731 235.377 259.953 234.984 260.054C234.591 260.152 234.194 260.134 233.793 260.002C233.392 259.866 233.012 259.618 232.652 259.258C232.296 258.903 232.049 258.523 231.91 258.119C231.773 257.714 231.748 257.316 231.836 256.924C231.925 256.531 232.13 256.173 232.453 255.85C232.649 255.654 232.871 255.497 233.119 255.378C233.368 255.259 233.635 255.196 233.919 255.188C234.204 255.181 234.5 255.245 234.805 255.383C235.11 255.518 235.419 255.743 235.734 256.058L235.974 256.298L233.214 259.057L232.708 258.551L234.805 256.454C234.628 256.276 234.434 256.155 234.225 256.09C234.014 256.024 233.803 256.016 233.592 256.067C233.382 256.117 233.19 256.229 233.015 256.404C232.826 256.594 232.707 256.806 232.658 257.041C232.61 257.273 232.622 257.502 232.695 257.728C232.767 257.951 232.89 258.149 233.063 258.323L233.458 258.718C233.69 258.95 233.929 259.107 234.173 259.188C234.418 259.268 234.658 259.277 234.891 259.215C235.123 259.152 235.338 259.022 235.535 258.824C235.663 258.696 235.762 258.561 235.831 258.42C235.899 258.277 235.935 258.13 235.938 257.979C235.941 257.829 235.908 257.679 235.84 257.529L236.595 257.005C236.732 257.245 236.805 257.502 236.814 257.776C236.823 258.047 236.768 258.321 236.647 258.598C236.527 258.873 236.34 259.136 236.087 259.389ZM236.405 251.989L236.947 252.531L235.051 254.427L234.509 253.885L236.405 251.989ZM234.186 252.545L234.861 251.869L238.145 255.153C238.276 255.284 238.394 255.363 238.5 255.39C238.604 255.415 238.699 255.409 238.785 255.372C238.87 255.331 238.95 255.274 239.024 255.2C239.078 255.146 239.122 255.095 239.155 255.046C239.188 254.998 239.214 254.96 239.232 254.933L239.912 255.37C239.888 255.424 239.847 255.495 239.79 255.582C239.734 255.671 239.653 255.77 239.546 255.88C239.371 256.061 239.174 256.195 238.954 256.283C238.734 256.37 238.507 256.392 238.274 256.348C238.04 256.304 237.819 256.178 237.609 255.968L234.186 252.545ZM240.624 254.712L237.152 251.241L237.805 250.588L238.357 251.14L238.393 251.103C238.269 250.853 238.234 250.595 238.287 250.328C238.34 250.059 238.468 249.822 238.671 249.619C238.713 249.576 238.764 249.528 238.825 249.474C238.886 249.418 238.936 249.376 238.974 249.347L239.62 249.994C239.585 250.013 239.529 250.053 239.451 250.113C239.371 250.172 239.296 250.236 239.227 250.306C239.067 250.465 238.959 250.642 238.901 250.834C238.844 251.024 238.839 251.215 238.886 251.406C238.931 251.596 239.029 251.766 239.179 251.917L241.299 254.037L240.624 254.712ZM244.9 253.039C244.8 253.14 244.699 253.224 244.6 253.29C244.502 253.358 244.424 253.403 244.365 253.425L243.974 252.709C244.131 252.619 244.255 252.523 244.347 252.422C244.439 252.321 244.488 252.2 244.494 252.058C244.501 251.915 244.457 251.738 244.36 251.527L244.213 251.213L239.427 248.967L240.15 248.243L243.723 250.058L243.759 250.022L241.944 246.449L242.67 245.724L245.174 251.089C245.288 251.336 245.357 251.573 245.38 251.801C245.404 252.03 245.377 252.246 245.298 252.451C245.22 252.656 245.087 252.852 244.9 253.039Z" fill="#F7F7F7"/>
<path d="M604.203 246.921L605.474 242.179L606.36 242.416L606.153 243.188L606.211 243.204C606.38 242.969 606.596 242.808 606.86 242.722C607.124 242.634 607.412 242.632 607.725 242.716C608.042 242.801 608.288 242.946 608.462 243.152C608.638 243.358 608.743 243.604 608.777 243.891L608.826 243.904C609.007 243.681 609.241 243.528 609.529 243.444C609.816 243.358 610.131 243.36 610.473 243.452C610.903 243.567 611.218 243.796 611.417 244.139C611.619 244.481 611.646 244.925 611.501 245.468L610.649 248.648L609.726 248.4L610.555 245.307C610.641 244.986 610.616 244.73 610.479 244.539C610.343 244.348 610.153 244.22 609.91 244.155C609.61 244.075 609.352 244.105 609.135 244.245C608.919 244.384 608.773 244.597 608.696 244.885L607.886 247.907L606.966 247.661L607.811 244.509C607.879 244.252 607.855 244.023 607.736 243.824C607.617 243.624 607.429 243.49 607.172 243.421C606.997 243.374 606.823 243.377 606.65 243.43C606.48 243.482 606.328 243.577 606.194 243.715C606.061 243.854 605.967 244.03 605.909 244.244L605.126 247.168L604.203 246.921ZM615.417 247.818L616.16 245.042L617.087 245.29L615.816 250.032L614.908 249.789L615.128 248.968L615.079 248.955C614.902 249.179 614.671 249.343 614.385 249.447C614.101 249.55 613.781 249.553 613.425 249.458C613.121 249.376 612.869 249.237 612.67 249.04C612.474 248.842 612.345 248.593 612.282 248.291C612.222 247.99 612.244 247.645 612.348 247.253L613.157 244.237L614.08 244.485L613.301 247.39C613.215 247.713 613.235 247.994 613.363 248.233C613.491 248.473 613.698 248.631 613.984 248.707C614.157 248.754 614.34 248.757 614.534 248.716C614.73 248.676 614.908 248.583 615.068 248.439C615.23 248.295 615.347 248.088 615.417 247.818ZM621.57 247.732L620.694 247.656C620.687 247.54 620.659 247.423 620.609 247.306C620.561 247.19 620.481 247.083 620.37 246.987C620.259 246.891 620.108 246.818 619.916 246.767C619.655 246.697 619.421 246.697 619.215 246.767C619.009 246.836 618.881 246.961 618.832 247.145C618.79 247.303 618.814 247.446 618.906 247.574C618.997 247.703 619.165 247.833 619.41 247.964L620.117 248.339C620.526 248.557 620.81 248.799 620.968 249.067C621.125 249.334 621.159 249.635 621.069 249.971C620.993 250.255 620.843 250.486 620.619 250.664C620.397 250.841 620.124 250.953 619.798 251C619.474 251.048 619.121 251.02 618.738 250.918C618.207 250.775 617.804 250.546 617.529 250.23C617.255 249.911 617.136 249.532 617.172 249.092L618.101 249.195C618.094 249.443 618.161 249.649 618.302 249.815C618.443 249.979 618.653 250.098 618.931 250.172C619.233 250.253 619.492 250.255 619.707 250.178C619.922 250.099 620.054 249.968 620.103 249.785C620.143 249.637 620.121 249.497 620.037 249.367C619.955 249.236 619.807 249.115 619.595 249.003L618.839 248.612C618.424 248.393 618.14 248.145 617.987 247.868C617.836 247.591 617.806 247.284 617.896 246.947C617.971 246.667 618.115 246.443 618.327 246.275C618.54 246.107 618.8 246.001 619.107 245.958C619.415 245.912 619.747 245.937 620.103 246.032C620.615 246.17 620.989 246.389 621.224 246.69C621.459 246.989 621.574 247.337 621.57 247.732ZM621.717 251.613L622.988 246.872L623.911 247.119L622.64 251.861L621.717 251.613ZM623.65 246.265C623.489 246.222 623.366 246.131 623.279 245.993C623.195 245.854 623.173 245.709 623.214 245.559C623.254 245.407 623.346 245.292 623.488 245.215C623.632 245.137 623.785 245.12 623.945 245.163C624.106 245.206 624.228 245.297 624.312 245.436C624.398 245.574 624.421 245.719 624.38 245.872C624.34 246.022 624.248 246.136 624.103 246.214C623.961 246.291 623.81 246.308 623.65 246.265ZM625.854 252.824C625.395 252.701 625.027 252.492 624.752 252.195C624.479 251.897 624.303 251.54 624.225 251.124C624.146 250.708 624.171 250.262 624.298 249.787C624.427 249.305 624.632 248.905 624.912 248.585C625.192 248.263 625.525 248.042 625.91 247.923C626.295 247.803 626.71 247.803 627.157 247.923C627.517 248.019 627.82 248.172 628.066 248.381C628.313 248.589 628.491 248.835 628.6 249.12C628.711 249.405 628.74 249.712 628.687 250.04L627.789 249.799C627.799 249.564 627.737 249.342 627.603 249.134C627.471 248.927 627.258 248.784 626.964 248.705C626.707 248.636 626.463 248.643 626.233 248.727C626.006 248.81 625.806 248.961 625.632 249.182C625.459 249.4 625.327 249.678 625.236 250.015C625.144 250.361 625.116 250.674 625.154 250.953C625.192 251.232 625.288 251.466 625.442 251.655C625.599 251.845 625.808 251.975 626.069 252.045C626.244 252.092 626.411 252.102 626.57 252.077C626.732 252.049 626.877 251.988 627.007 251.892C627.138 251.798 627.246 251.67 627.331 251.51L628.229 251.75C628.114 252.048 627.941 252.295 627.71 252.491C627.478 252.687 627.204 252.817 626.888 252.88C626.573 252.943 626.228 252.925 625.854 252.824Z" fill="#F7F7F7"/>
<path d="M723.747 113.893L722.053 120.215L721.176 119.98L719.205 114.482L719.146 114.467L717.904 119.104L716.95 118.848L718.644 112.526L719.527 112.762L721.499 118.267L721.558 118.283L722.802 113.64L723.747 113.893ZM723.444 120.588L725.138 114.266L729.059 115.316L728.839 116.137L725.872 115.343L725.356 117.269L728.042 117.989L727.823 118.807L725.137 118.087L724.398 120.844L723.444 120.588ZM729.7 116.368L729.92 115.547L734.813 116.858L734.593 117.679L732.621 117.151L731.147 122.652L730.196 122.397L731.67 116.896L729.7 116.368Z" fill="#364045"/>
<path d="M1198.61 125.885L1195.31 120.234L1197.38 119.024C1197.78 118.79 1198.15 118.662 1198.49 118.641C1198.83 118.618 1199.13 118.68 1199.39 118.828C1199.65 118.975 1199.87 119.188 1200.03 119.467C1200.17 119.703 1200.24 119.927 1200.25 120.139C1200.26 120.35 1200.22 120.546 1200.13 120.728C1200.04 120.908 1199.92 121.07 1199.77 121.216L1199.81 121.271C1200 121.17 1200.22 121.124 1200.46 121.132C1200.71 121.137 1200.95 121.207 1201.19 121.343C1201.42 121.478 1201.63 121.692 1201.8 121.984C1201.97 122.273 1202.05 122.572 1202.05 122.882C1202.05 123.188 1201.95 123.491 1201.74 123.79C1201.54 124.087 1201.22 124.363 1200.78 124.619L1198.61 125.885ZM1199.04 124.655L1200.27 123.936C1200.68 123.698 1200.92 123.448 1201.01 123.186C1201.09 122.925 1201.06 122.675 1200.93 122.438C1200.82 122.26 1200.68 122.122 1200.5 122.026C1200.33 121.93 1200.13 121.886 1199.91 121.896C1199.69 121.904 1199.47 121.975 1199.24 122.108L1197.98 122.845L1199.04 124.655ZM1197.59 122.18L1198.73 121.513C1198.93 121.401 1199.08 121.264 1199.19 121.101C1199.3 120.937 1199.36 120.762 1199.37 120.577C1199.39 120.389 1199.34 120.204 1199.23 120.022C1199.1 119.788 1198.9 119.64 1198.64 119.578C1198.39 119.515 1198.09 119.583 1197.75 119.781L1196.59 120.461L1197.59 122.18ZM1201.15 116.819L1204.46 122.47L1203.63 122.953L1200.33 117.301L1201.15 116.819ZM1207.4 120.864C1207 121.096 1206.6 121.208 1206.2 121.199C1205.8 121.19 1205.42 121.069 1205.06 120.838C1204.71 120.606 1204.4 120.271 1204.15 119.833C1203.89 119.393 1203.75 118.961 1203.72 118.536C1203.69 118.111 1203.77 117.721 1203.96 117.366C1204.15 117.011 1204.44 116.717 1204.84 116.485C1205.24 116.253 1205.64 116.141 1206.04 116.15C1206.44 116.159 1206.82 116.28 1207.18 116.514C1207.54 116.748 1207.84 117.084 1208.1 117.524C1208.36 117.962 1208.5 118.392 1208.53 118.815C1208.55 119.239 1208.47 119.628 1208.28 119.983C1208.09 120.338 1207.8 120.632 1207.4 120.864ZM1207 120.17C1207.26 120.019 1207.43 119.826 1207.52 119.591C1207.61 119.356 1207.63 119.102 1207.58 118.829C1207.53 118.554 1207.42 118.28 1207.27 118.008C1207.11 117.738 1206.92 117.514 1206.71 117.336C1206.49 117.155 1206.26 117.045 1206.01 117.006C1205.76 116.967 1205.51 117.023 1205.25 117.173C1204.99 117.325 1204.81 117.519 1204.72 117.757C1204.63 117.994 1204.62 118.251 1204.67 118.527C1204.72 118.801 1204.82 119.073 1204.98 119.343C1205.14 119.616 1205.33 119.841 1205.54 120.02C1205.75 120.198 1205.99 120.306 1206.23 120.343C1206.49 120.379 1206.74 120.321 1207 120.17ZM1213.01 119.725C1212.67 119.922 1212.35 120.047 1212.06 120.1C1211.77 120.153 1211.5 120.151 1211.26 120.095C1211.03 120.039 1210.82 119.946 1210.64 119.818L1211.18 119.111C1211.28 119.163 1211.39 119.209 1211.53 119.251C1211.67 119.294 1211.83 119.305 1212.01 119.286C1212.19 119.265 1212.4 119.188 1212.63 119.055C1212.94 118.872 1213.15 118.645 1213.27 118.373C1213.38 118.103 1213.34 117.802 1213.15 117.471L1212.66 116.638L1212.61 116.668C1212.61 116.787 1212.6 116.93 1212.57 117.095C1212.54 117.259 1212.47 117.429 1212.36 117.604C1212.24 117.78 1212.06 117.943 1211.8 118.095C1211.46 118.291 1211.12 118.389 1210.76 118.389C1210.4 118.387 1210.05 118.278 1209.71 118.062C1209.38 117.843 1209.08 117.509 1208.82 117.058C1208.55 116.607 1208.4 116.176 1208.37 115.765C1208.33 115.353 1208.4 114.983 1208.57 114.655C1208.74 114.325 1208.99 114.061 1209.33 113.862C1209.59 113.708 1209.83 113.628 1210.05 113.622C1210.26 113.613 1210.44 113.641 1210.6 113.704C1210.76 113.766 1210.89 113.827 1210.99 113.886L1211.05 113.851L1210.65 113.164L1211.46 112.691L1213.99 117.024C1214.21 117.388 1214.3 117.736 1214.26 118.069C1214.23 118.401 1214.1 118.708 1213.88 118.989C1213.66 119.269 1213.37 119.514 1213.01 119.725ZM1211.58 117.304C1211.82 117.166 1211.99 116.993 1212.08 116.787C1212.18 116.578 1212.22 116.345 1212.18 116.088C1212.14 115.827 1212.04 115.551 1211.87 115.259C1211.7 114.973 1211.51 114.747 1211.3 114.579C1211.09 114.412 1210.87 114.315 1210.63 114.289C1210.4 114.262 1210.16 114.318 1209.92 114.459C1209.67 114.604 1209.5 114.79 1209.41 115.015C1209.32 115.239 1209.29 115.485 1209.34 115.753C1209.38 116.021 1209.48 116.29 1209.64 116.56C1209.8 116.838 1209.99 117.057 1210.2 117.217C1210.4 117.377 1210.62 117.468 1210.86 117.489C1211.09 117.509 1211.34 117.447 1211.58 117.304Z" fill="#F7F7F7"/>
<circle cx="1621.32" cy="39.4153" r="17" fill="#F5FAFF" stroke="url(#paint7_linear_0_1)"/>
<path d="M1612.52 48.0283L1609.22 42.377L1611.24 41.1999C1611.68 40.9429 1612.09 40.8101 1612.47 40.8014C1612.85 40.7926 1613.2 40.8852 1613.5 41.0792C1613.81 41.2712 1614.06 41.5402 1614.26 41.8861C1614.46 42.2337 1614.57 42.5889 1614.59 42.9516C1614.61 43.3114 1614.52 43.6572 1614.32 43.9889C1614.13 44.3178 1613.81 44.6101 1613.37 44.866L1611.99 45.6755L1611.57 44.9525L1612.87 44.1881C1613.15 44.0258 1613.35 43.8463 1613.47 43.6496C1613.58 43.451 1613.63 43.2444 1613.62 43.0297C1613.6 42.815 1613.53 42.6009 1613.4 42.3876C1613.28 42.1742 1613.13 42.0083 1612.95 41.8901C1612.77 41.7718 1612.57 41.7168 1612.34 41.7251C1612.11 41.7324 1611.86 41.8188 1611.57 41.9843L1610.5 42.61L1613.38 47.53L1612.52 48.0283ZM1616.78 42.1637L1618.25 44.6802L1617.43 45.1624L1614.13 39.5111L1614.94 39.0354L1616.17 41.1381L1616.22 41.1074C1616.19 40.8213 1616.23 40.5514 1616.36 40.2978C1616.48 40.0442 1616.71 39.8211 1617.04 39.6287C1617.33 39.4588 1617.62 39.3703 1617.91 39.363C1618.2 39.3546 1618.47 39.4342 1618.73 39.6016C1618.99 39.7661 1619.22 40.025 1619.43 40.3782L1621 43.0741L1620.18 43.5563L1618.66 40.9597C1618.48 40.6488 1618.26 40.4546 1618 40.377C1617.74 40.2976 1617.46 40.3412 1617.18 40.5079C1616.98 40.6218 1616.83 40.7653 1616.73 40.9384C1616.62 41.1104 1616.57 41.3023 1616.58 41.5139C1616.58 41.7226 1616.65 41.9392 1616.78 42.1637ZM1623.94 41.4729C1623.54 41.7051 1623.14 41.8167 1622.74 41.8077C1622.34 41.7987 1621.96 41.6782 1621.6 41.4465C1621.25 41.2147 1620.94 40.8799 1620.68 40.4421C1620.43 40.0024 1620.29 39.5701 1620.26 39.1451C1620.23 38.7202 1620.31 38.3301 1620.5 37.9749C1620.69 37.6197 1620.98 37.326 1621.38 37.0938C1621.78 36.8616 1622.18 36.75 1622.58 36.759C1622.98 36.7681 1623.36 36.8894 1623.72 37.123C1624.07 37.3566 1624.38 37.6933 1624.64 38.1329C1624.89 38.5707 1625.03 39.0012 1625.06 39.4243C1625.09 39.8475 1625.01 40.2366 1624.82 40.5918C1624.63 40.947 1624.34 41.2407 1623.94 41.4729ZM1623.54 40.7787C1623.79 40.6282 1623.97 40.4354 1624.06 40.2004C1624.15 39.9654 1624.17 39.7111 1624.11 39.4375C1624.06 39.1629 1623.96 38.8894 1623.8 38.6171C1623.64 38.3467 1623.46 38.1226 1623.24 37.9447C1623.03 37.7639 1622.8 37.6539 1622.55 37.6149C1622.3 37.5758 1622.04 37.6315 1621.78 37.782C1621.53 37.9336 1621.35 38.1284 1621.26 38.3663C1621.17 38.6032 1621.15 38.8599 1621.2 39.1363C1621.25 39.4099 1621.36 39.6819 1621.52 39.9523C1621.68 40.2246 1621.86 40.4502 1622.07 40.6292C1622.29 40.8071 1622.52 40.9146 1622.77 40.9519C1623.02 40.988 1623.28 40.9303 1623.54 40.7787ZM1626.29 34.3L1626.67 34.9623L1624.36 36.3152L1623.97 35.6529L1626.29 34.3ZM1624 34.2747L1624.82 33.7925L1627.17 37.8019C1627.26 37.9619 1627.35 38.0685 1627.45 38.1215C1627.54 38.1726 1627.64 38.1909 1627.73 38.1762C1627.82 38.1587 1627.91 38.1235 1628 38.0709C1628.07 38.0322 1628.13 37.9937 1628.17 37.9555C1628.21 37.9173 1628.25 37.8873 1628.27 37.8657L1628.82 38.4602C1628.78 38.5065 1628.73 38.5647 1628.65 38.6347C1628.57 38.7065 1628.47 38.7821 1628.34 38.8613C1628.12 38.9918 1627.9 39.0715 1627.66 39.1002C1627.43 39.1289 1627.2 39.0925 1626.99 38.991C1626.77 38.8894 1626.59 38.7108 1626.44 38.4551L1624 34.2747ZM1631.47 37.0739C1631.07 37.3061 1630.67 37.4177 1630.27 37.4087C1629.86 37.3996 1629.48 37.2792 1629.13 37.0475C1628.77 36.8157 1628.47 36.4809 1628.21 36.0431C1627.96 35.6034 1627.81 35.1711 1627.78 34.7461C1627.76 34.3212 1627.84 33.9311 1628.03 33.5759C1628.22 33.2207 1628.51 32.927 1628.91 32.6948C1629.3 32.4626 1629.7 32.351 1630.11 32.36C1630.51 32.369 1630.89 32.4904 1631.24 32.724C1631.6 32.9576 1631.91 33.2942 1632.16 33.7339C1632.42 34.1717 1632.56 34.6022 1632.59 35.0253C1632.62 35.4484 1632.54 35.8376 1632.35 36.1928C1632.16 36.548 1631.86 36.8417 1631.47 37.0739ZM1631.06 36.3797C1631.32 36.2292 1631.49 36.0364 1631.58 35.8014C1631.67 35.5664 1631.69 35.3121 1631.64 35.0385C1631.59 34.7638 1631.49 34.4904 1631.33 34.2181C1631.17 33.9477 1630.98 33.7235 1630.77 33.5457C1630.56 33.3648 1630.32 33.2549 1630.07 33.2158C1629.82 33.1768 1629.57 33.2325 1629.31 33.383C1629.05 33.5346 1628.88 33.7293 1628.79 33.9673C1628.7 34.2042 1628.68 34.4608 1628.73 34.7373C1628.78 35.0109 1628.89 35.2829 1629.04 35.5533C1629.2 35.8256 1629.39 36.0512 1629.6 36.2302C1629.82 36.408 1630.05 36.5156 1630.3 36.5528C1630.55 36.589 1630.8 36.5313 1631.06 36.3797Z" fill="#364045"/>
<path d="M1362.05 181.29L1359.56 186.347L1359.62 186.399L1364.67 183.918L1365.43 184.673L1359.14 187.636L1358.33 186.829L1361.29 180.535L1362.05 181.29ZM1361.42 189.915L1364.89 186.444L1365.56 187.12L1362.09 190.591L1361.42 189.915ZM1365.76 186.25C1365.65 186.132 1365.58 185.992 1365.58 185.829C1365.57 185.667 1365.63 185.53 1365.74 185.42C1365.85 185.309 1365.99 185.255 1366.15 185.26C1366.31 185.264 1366.45 185.325 1366.57 185.443C1366.69 185.56 1366.75 185.701 1366.75 185.863C1366.76 186.026 1366.7 186.163 1366.59 186.275C1366.48 186.385 1366.35 186.437 1366.18 186.433C1366.02 186.428 1365.88 186.367 1365.76 186.25ZM1364.23 192.867C1363.95 192.587 1363.77 192.265 1363.7 191.902C1363.62 191.539 1363.66 191.162 1363.8 190.77C1363.94 190.378 1364.2 189.995 1364.58 189.62C1364.95 189.245 1365.34 188.986 1365.73 188.845C1366.12 188.705 1366.5 188.674 1366.86 188.752C1367.22 188.83 1367.54 189.009 1367.82 189.288C1368.04 189.503 1368.17 189.713 1368.23 189.916C1368.29 190.119 1368.31 190.305 1368.29 190.472C1368.27 190.641 1368.24 190.781 1368.21 190.894L1368.25 190.935L1369.97 189.215L1370.65 189.891L1366.02 194.519L1365.36 193.859L1365.9 193.319L1365.84 193.263C1365.73 193.296 1365.59 193.322 1365.41 193.34C1365.24 193.359 1365.06 193.338 1364.85 193.276C1364.65 193.215 1364.44 193.078 1364.23 192.867ZM1364.96 192.44C1365.15 192.635 1365.37 192.748 1365.6 192.779C1365.84 192.811 1366.09 192.769 1366.34 192.655C1366.6 192.542 1366.85 192.363 1367.09 192.119C1367.33 191.878 1367.51 191.633 1367.62 191.383C1367.73 191.132 1367.77 190.89 1367.74 190.655C1367.7 190.42 1367.59 190.204 1367.39 190.006C1367.19 189.803 1366.97 189.686 1366.72 189.656C1366.48 189.626 1366.24 189.667 1365.99 189.78C1365.74 189.895 1365.5 190.067 1365.27 190.296C1365.03 190.528 1364.86 190.771 1364.74 191.026C1364.63 191.28 1364.58 191.529 1364.61 191.774C1364.64 192.018 1364.76 192.24 1364.96 192.44ZM1368.41 197.05C1368.07 196.708 1367.85 196.34 1367.75 195.947C1367.65 195.554 1367.66 195.157 1367.8 194.756C1367.93 194.355 1368.18 193.975 1368.54 193.615C1368.9 193.259 1369.28 193.012 1369.68 192.874C1370.08 192.736 1370.48 192.712 1370.88 192.799C1371.27 192.888 1371.63 193.094 1371.95 193.416C1372.14 193.612 1372.3 193.834 1372.42 194.083C1372.54 194.331 1372.6 194.598 1372.61 194.883C1372.62 195.167 1372.55 195.463 1372.42 195.769C1372.28 196.073 1372.06 196.382 1371.74 196.697L1371.5 196.937L1368.74 194.178L1369.25 193.671L1371.35 195.769C1371.52 195.591 1371.64 195.397 1371.71 195.188C1371.78 194.977 1371.78 194.766 1371.73 194.555C1371.68 194.346 1371.57 194.153 1371.39 193.979C1371.21 193.789 1370.99 193.67 1370.76 193.622C1370.53 193.573 1370.3 193.585 1370.07 193.658C1369.85 193.73 1369.65 193.853 1369.48 194.026L1369.08 194.422C1368.85 194.654 1368.69 194.892 1368.61 195.136C1368.53 195.381 1368.52 195.621 1368.58 195.854C1368.65 196.086 1368.78 196.301 1368.97 196.499C1369.1 196.627 1369.24 196.725 1369.38 196.795C1369.52 196.862 1369.67 196.898 1369.82 196.901C1369.97 196.904 1370.12 196.871 1370.27 196.804L1370.79 197.558C1370.55 197.696 1370.3 197.769 1370.02 197.778C1369.75 197.787 1369.48 197.731 1369.2 197.61C1368.93 197.49 1368.66 197.303 1368.41 197.05ZM1372.11 200.751C1371.79 200.426 1371.58 200.067 1371.48 199.675C1371.39 199.284 1371.41 198.887 1371.54 198.484C1371.68 198.082 1371.92 197.702 1372.28 197.343C1372.64 196.983 1373.02 196.735 1373.43 196.6C1373.83 196.464 1374.23 196.443 1374.62 196.536C1375.01 196.63 1375.37 196.839 1375.7 197.165C1376.02 197.49 1376.23 197.849 1376.33 198.24C1376.42 198.632 1376.4 199.03 1376.26 199.434C1376.13 199.837 1375.88 200.219 1375.52 200.579C1375.16 200.938 1374.78 201.184 1374.38 201.318C1373.98 201.452 1373.58 201.473 1373.19 201.379C1372.79 201.286 1372.44 201.077 1372.11 200.751ZM1372.68 200.186C1372.89 200.397 1373.12 200.516 1373.37 200.543C1373.62 200.57 1373.87 200.524 1374.12 200.405C1374.38 200.288 1374.62 200.118 1374.84 199.895C1375.06 199.673 1375.23 199.436 1375.35 199.183C1375.47 198.93 1375.52 198.677 1375.49 198.426C1375.46 198.174 1375.35 197.943 1375.13 197.732C1374.92 197.519 1374.69 197.4 1374.44 197.373C1374.18 197.347 1373.93 197.394 1373.68 197.513C1373.43 197.632 1373.19 197.802 1372.97 198.023C1372.74 198.246 1372.57 198.484 1372.45 198.735C1372.34 198.988 1372.29 199.24 1372.32 199.49C1372.35 199.742 1372.47 199.974 1372.68 200.186Z" fill="#F7F7F7"/>
<defs>
<linearGradient id="paint0_linear_0_1" x1="1275.46" y1="-43.3134" x2="184.831" y2="409.196" gradientUnits="userSpaceOnUse">
<stop stop-color="#B401F3"/>
<stop offset="1" stop-color="#B401F3" stop-opacity="0"/>
</linearGradient>
<linearGradient id="paint1_linear_0_1" x1="863.798" y1="36.2339" x2="863.798" y2="298.031" gradientUnits="userSpaceOnUse">
<stop stop-color="#B401F3"/>
<stop offset="1" stop-color="white" stop-opacity="0"/>
</linearGradient>
<linearGradient id="paint2_linear_0_1" x1="845.754" y1="111.855" x2="845.754" y2="298.031" gradientUnits="userSpaceOnUse">
<stop stop-color="white"/>
<stop offset="1" stop-color="#CB22E8"/>
</linearGradient>
<linearGradient id="paint3_linear_0_1" x1="252.264" y1="239.755" x2="193.517" y2="240.651" gradientUnits="userSpaceOnUse">
<stop stop-color="#7B55EC"/>
<stop offset="1" stop-color="#FF00E5"/>
</linearGradient>
<linearGradient id="paint4_linear_0_1" x1="635.185" y1="229.783" x2="576.438" y2="230.678" gradientUnits="userSpaceOnUse">
<stop stop-color="#7B55EC"/>
<stop offset="1" stop-color="#FF00E5"/>
</linearGradient>
<linearGradient id="paint5_linear_0_1" x1="744.083" y1="100.575" x2="685.336" y2="101.47" gradientUnits="userSpaceOnUse">
<stop stop-color="#7B55EC"/>
<stop offset="1" stop-color="#FF00E5"/>
</linearGradient>
<linearGradient id="paint6_linear_0_1" x1="1223.37" y1="101.413" x2="1164.63" y2="102.308" gradientUnits="userSpaceOnUse">
<stop stop-color="#7B55EC"/>
<stop offset="1" stop-color="#FF00E5"/>
</linearGradient>
<linearGradient id="paint7_linear_0_1" x1="1639.74" y1="21.9153" x2="1581" y2="22.8105" gradientUnits="userSpaceOnUse">
<stop stop-color="#7B55EC"/>
<stop offset="1" stop-color="#FF00E5"/>
</linearGradient>
</defs>
</svg>
