<svg width="25" height="25" viewBox="0 0 25 25" fill="none" xmlns="http://www.w3.org/2000/svg">
<path fill-rule="evenodd" clip-rule="evenodd" d="M20.7161 11.887C20.7161 11.6108 20.9471 11.387 21.2321 11.387C21.5171 11.387 21.7482 11.6108 21.7482 11.887V18.887C21.7482 20.2677 20.593 21.387 19.1679 21.387H5.73619C4.31116 21.387 3.15594 20.2677 3.15594 18.887V5.88696C3.15594 4.50624 4.31116 3.38696 5.73619 3.38696H12.9753C13.1597 3.38696 13.3301 3.48226 13.4222 3.63696C13.5144 3.79166 13.5144 3.98226 13.4222 4.13696C13.3301 4.29166 13.1597 4.38696 12.9753 4.38696H5.73619C4.88117 4.38696 4.18804 5.05853 4.18804 5.88696V18.887C4.18804 19.7154 4.88117 20.387 5.73619 20.387H19.1679C20.0229 20.387 20.7161 19.7154 20.7161 18.887V11.887ZM19.5333 3.53296L21.5975 5.53296C21.6945 5.62676 21.7491 5.75413 21.7491 5.88696C21.7491 6.01978 21.6945 6.14715 21.5975 6.24096L13.3407 14.241C13.2437 14.3347 13.1123 14.3872 12.9753 14.387H10.9111C10.6261 14.387 10.3951 14.1631 10.3951 13.887V11.887C10.3948 11.7543 10.449 11.6269 10.5458 11.533L18.8026 3.53296C18.8994 3.43891 19.0308 3.38606 19.1679 3.38606C19.305 3.38606 19.4365 3.43891 19.5333 3.53296ZM19.1679 4.59396L11.4272 12.094V13.387H12.7617L20.5024 5.88696L19.1679 4.59396Z" fill="#7D7D7D"/>
</svg>
